<?xml version="1.0" encoding="utf-8"?>
<!-- Generator: Adobe Illustrator 26.2.1, SVG Export Plug-In . SVG Version: 6.00 Build 0)  -->
<svg version="1.1" id="Layer_1" xmlns="http://www.w3.org/2000/svg" xmlns:xlink="http://www.w3.org/1999/xlink" x="0px" y="0px"
	 viewBox="0 0 24 24" style="enable-background:new 0 0 24 24;" xml:space="preserve">
<style type="text/css">
	.st0{fill:none;}
	.st1{fill:none;stroke:#A4E636;stroke-width:2;stroke-linecap:round;stroke-linejoin:round;}
</style>
<path class="st0" d="M0,0h24v24H0V0z"/>
<path class="st1" d="M9,12c0,1.7,1.3,3,3,3s3-1.3,3-3s-1.3-3-3-3S9,10.3,9,12"/>
<path class="st1" d="M12,2c1.7,0,3,1.3,3,3c0,0.6-0.3,1.4-0.8,2.6L13.5,9l1.8-1.9c0.5-0.6,0.9-1,1.3-1.2c1.4-0.8,3.2-0.3,4.1,1.1
	c0,0,0,0,0,0c0.8,1.4,0.3,3.3-1.1,4.1c-0.4,0.2-1,0.4-1.8,0.5L15,12l2.4,0.3c1,0.1,1.7,0.3,2.1,0.6c1.4,0.8,1.9,2.7,1.1,4.1
	c-0.8,1.4-2.6,1.9-4,1.1c0,0,0,0,0,0c-0.3-0.2-0.8-0.6-1.3-1.2L13.5,15l0.7,1.4c0.5,1.2,0.8,2.1,0.8,2.6c0,1.7-1.3,3-3,3s-3-1.3-3-3
	c0-0.6,0.3-1.4,0.8-2.6l0.7-1.4l-1.8,1.9c-0.5,0.6-0.9,1-1.3,1.2c-1.4,0.8-3.2,0.3-4.1-1.1c0,0,0,0,0,0c-0.8-1.4-0.3-3.3,1.1-4.1
	c0.4-0.2,1-0.4,1.8-0.5L9,12l-2.4-0.3c-1-0.1-1.7-0.3-2.1-0.6C3.1,10.3,2.6,8.4,3.4,7c0.8-1.4,2.6-1.9,4-1.1c0,0,0,0,0,0
	c0.3,0.2,0.8,0.6,1.3,1.2L10.5,9C9.5,6.7,9,5.4,9,5C9,3.3,10.3,2,12,2"/>
<g id="h3HzuR.tif">
	
		<image style="overflow:visible;" width="282" height="248" id="Layer_0_00000045618571674372273100000012010939670906036657_" xlink:href="299C1BAA91273A42.png"  transform="matrix(0.5 0 0 0.5 -149.5056 -94.3312)">
	</image>
</g>
</svg>
